<svg width="16" height="16" viewBox="0 0 16 16" fill="none" xmlns="http://www.w3.org/2000/svg">
<g opacity="0.6" clip-path="url(#clip0_88_1861)">
<path d="M5.84566 0.66748C5.50387 0.668878 5.16914 0.764831 4.87852 0.944718C4.5879 1.1246 4.35273 1.38141 4.19904 1.68669C4.1105 1.83973 4.08637 2.02166 4.13197 2.19248C4.17757 2.3633 4.28916 2.50901 4.44219 2.59756C4.59522 2.6861 4.77716 2.71023 4.94798 2.66463C5.1188 2.61903 5.26451 2.50744 5.35306 2.35441C5.41605 2.14024 5.60503 1.99787 5.8444 1.99787H13.4879C13.7827 1.99787 13.9994 2.21457 13.9994 2.51063V10.1541C14.0028 10.2594 13.9724 10.363 13.9125 10.4496C13.8526 10.5363 13.7665 10.6014 13.6668 10.6354C13.5871 10.6772 13.5168 10.7347 13.46 10.8044C13.4031 10.8741 13.3609 10.9546 13.336 11.041C13.311 11.1274 13.3037 11.2179 13.3146 11.3072C13.3255 11.3965 13.3543 11.4827 13.3993 11.5605C13.4443 11.6384 13.5046 11.7064 13.5765 11.7604C13.6484 11.8144 13.7305 11.8533 13.8179 11.8748C13.9052 11.8963 13.996 11.8999 14.0848 11.8854C14.1735 11.871 14.2585 11.8387 14.3345 11.7906C14.9253 11.482 15.3335 10.8609 15.3335 10.1541V2.51063C15.3335 1.49898 14.4983 0.66748 13.4879 0.66748H5.84566ZM2.51211 4.00228C1.50172 4.00228 0.666443 4.83378 0.666443 5.84417V13.4889C0.666443 14.5006 1.50172 15.332 2.51211 15.332H10.1543C11.166 15.332 12.0012 14.5006 12.0012 13.4889V5.84543C12.0012 4.83504 11.166 4.00354 10.1543 4.00354L2.51211 4.00228ZM2.51211 5.33268H10.1543C10.4504 5.33268 10.6671 5.54937 10.6671 5.84417V13.4889C10.6692 13.5568 10.6573 13.6244 10.6323 13.6876C10.6073 13.7507 10.5696 13.8081 10.5216 13.8561C10.4735 13.9042 10.4162 13.9419 10.353 13.9669C10.2898 13.9919 10.2222 14.0038 10.1543 14.0017H2.51211C2.44431 14.0036 2.37684 13.9916 2.31383 13.9665C2.25082 13.9414 2.1936 13.9037 2.1457 13.8557C2.0978 13.8076 2.06022 13.7503 2.03527 13.6873C2.01032 13.6242 1.99853 13.5567 2.00062 13.4889V5.84543C2.00062 5.55063 2.21731 5.33394 2.51211 5.33394V5.33268Z" fill="white"/>
</g>
<defs>
<clipPath id="clip0_88_1861">
<rect width="16" height="16" fill="white"/>
</clipPath>
</defs>
</svg>
