<svg width="129" height="85" viewBox="0 0 129 85" fill="none" xmlns="http://www.w3.org/2000/svg">
<path opacity="0.4" fill-rule="evenodd" clip-rule="evenodd" d="M67.4369 17.9994C73.1369 24.8104 76.2558 33.4292 76.2416 42.33C76.2416 51.5936 72.9322 60.0804 67.4349 66.6586L81.9628 81.2653C82.6989 82.0053 83.5728 82.5923 84.5345 82.9928C85.4963 83.3933 86.5271 83.5994 87.5681 83.5994C88.6091 83.5994 89.6399 83.3933 90.6017 82.9928C91.5634 82.5923 92.4373 82.0053 93.1733 81.2653L126.3 47.9639C127.036 47.2239 127.62 46.3454 128.018 45.3786C128.416 44.4117 128.621 43.3755 128.621 42.329C128.621 41.2825 128.416 40.2462 128.018 39.2794C127.62 38.3125 127.036 37.434 126.3 36.6941L93.1753 3.39664C92.4393 2.65663 91.5654 2.06962 90.6036 1.66912C89.6419 1.26863 88.6111 1.0625 87.5701 1.0625C86.5291 1.0625 85.4983 1.26863 84.5365 1.66912C83.5748 2.06962 82.7009 2.65663 81.9648 3.39664L67.4369 17.9994ZM87.3174 16.4315C89.1569 16.4315 90.9211 17.1661 92.2219 18.4738C93.5226 19.7814 94.2534 21.5549 94.2534 23.4042C94.2534 25.2534 93.5226 27.027 92.2219 28.3346C90.9211 29.6422 89.1569 30.3768 87.3174 30.3768C85.4779 30.3768 83.7137 29.6422 82.4129 28.3346C81.1122 27.027 80.3814 25.2534 80.3814 23.4042C80.3814 21.5549 81.1122 19.7814 82.4129 18.4738C83.7137 17.1661 85.4779 16.4315 87.3174 16.4315ZM94.2534 63.2479C94.2534 62.3323 94.074 61.4256 93.7254 60.5796C93.3769 59.7337 92.8659 58.965 92.2219 58.3175C91.5778 57.6701 90.8132 57.1564 89.9717 56.806C89.1302 56.4556 88.2283 56.2753 87.3174 56.2753C86.4066 56.2753 85.5046 56.4556 84.6631 56.806C83.8216 57.1564 83.057 57.6701 82.4129 58.3175C81.7689 58.965 81.258 59.7337 80.9094 60.5796C80.5608 61.4256 80.3814 62.3323 80.3814 63.2479C80.3814 65.0972 81.1122 66.8707 82.4129 68.1783C83.7137 69.486 85.4779 70.2206 87.3174 70.2206C89.1569 70.2206 90.9211 69.486 92.2219 68.1783C93.5226 66.8707 94.2534 65.0972 94.2534 63.2479Z" fill="#BCBCBC"/>
<path d="M38.7092 4.47852C59.5033 4.47852 76.3616 21.4261 76.3616 42.3301C76.3614 63.234 59.5032 80.1816 38.7092 80.1816C17.9153 80.1816 1.05702 63.234 1.05688 42.3301C1.05688 21.4261 17.9152 4.47857 38.7092 4.47852ZM38.7092 14.4395C23.3867 14.4395 10.9651 26.9265 10.9651 42.3301C10.9652 57.7335 23.3868 70.2206 38.7092 70.2207C54.0317 70.2207 66.4532 57.7336 66.4534 42.3301C66.4534 26.9265 54.0318 14.4395 38.7092 14.4395ZM38.7092 16.4316C52.9379 16.4316 64.4719 28.0262 64.4719 42.3301C64.4718 56.6339 52.9378 68.2285 38.7092 68.2285C24.4807 68.2285 12.9476 56.6338 12.9475 42.3301C12.9475 28.0262 24.4806 16.4317 38.7092 16.4316ZM32.2502 29.0332C31.9948 28.9656 31.7222 29.0024 31.4934 29.1348C31.265 29.2671 31.0978 29.4842 31.0286 29.7393C30.9593 29.9947 30.9937 30.268 31.1243 30.498L44.9592 54.5049C45.0928 54.7331 45.3114 54.8991 45.5667 54.9668C45.822 55.0344 46.0937 54.9975 46.3225 54.8652C46.5512 54.733 46.7191 54.516 46.7883 54.2607C46.8575 54.0053 46.8232 53.732 46.6926 53.502L32.8567 29.4951C32.7231 29.2671 32.5053 29.1009 32.2502 29.0332ZM38.9944 49.9941C38.4636 49.994 37.9538 50.2052 37.5784 50.5811C37.2029 50.957 36.9926 51.4673 36.9924 51.999C36.9923 52.5307 37.2023 53.0409 37.5774 53.417C37.9525 53.793 38.4618 54.0046 38.9924 54.0049C39.2553 54.0049 39.5162 53.9532 39.759 53.8525C40.0018 53.7519 40.2226 53.6041 40.4084 53.418C40.5942 53.2319 40.7414 53.0107 40.842 52.7676C40.9427 52.5243 40.9943 52.2633 40.9944 52C40.9944 51.7367 40.9435 51.4757 40.843 51.2324C40.7425 50.9893 40.5951 50.7682 40.4094 50.582C40.2237 50.3959 40.0027 50.2483 39.76 50.1475C39.5174 50.0467 39.257 49.9943 38.9944 49.9941ZM37.0979 44.0654C36.965 44.0547 36.831 44.0705 36.7043 44.1123C35.4599 44.4885 34.3276 45.168 33.4094 46.0898C33.2272 46.2789 33.1259 46.5322 33.1282 46.7949C33.1305 47.0576 33.2357 47.3093 33.4211 47.4951C33.6066 47.6809 33.858 47.7858 34.1204 47.7881C34.3827 47.7904 34.6358 47.6894 34.8245 47.5068C35.5095 46.819 36.3541 46.3114 37.2825 46.0303C37.411 45.9948 37.5312 45.9342 37.636 45.8516C37.7408 45.7688 37.8283 45.6659 37.8928 45.5488C37.9574 45.4318 37.9979 45.3029 38.012 45.1699C38.026 45.0369 38.0134 44.9024 37.9749 44.7744C37.9363 44.6465 37.8724 44.5277 37.7874 44.4248C37.7022 44.3219 37.5972 44.2365 37.4788 44.1748C37.3604 44.1132 37.2308 44.0762 37.0979 44.0654ZM33.9817 39.0381C33.849 39.0417 33.7179 39.0722 33.5969 39.127C32.0092 39.8114 30.566 40.793 29.345 42.0186C29.1574 42.2066 29.0519 42.4617 29.052 42.7275C29.0521 42.9934 29.1573 43.2486 29.345 43.4365C29.5327 43.6244 29.7876 43.7296 30.053 43.7295C30.3183 43.7293 30.5725 43.6235 30.76 43.4355C31.8014 42.3897 33.0326 41.552 34.387 40.9678C34.5099 40.9174 34.6221 40.8431 34.7161 40.749C34.8099 40.655 34.8845 40.543 34.9348 40.4199C34.9851 40.2967 35.0102 40.1643 35.009 40.0312C35.0078 39.8983 34.9804 39.7667 34.928 39.6445C34.8755 39.5223 34.7989 39.4117 34.7034 39.3193C34.6077 39.2269 34.4942 39.1546 34.3704 39.1064C34.2466 39.0583 34.1144 39.0345 33.9817 39.0381ZM41.1516 38.1875C41.0211 38.1649 40.8872 38.1687 40.7581 38.1982C40.6289 38.2278 40.5065 38.2831 40.3987 38.3604C40.291 38.4376 40.1998 38.5356 40.1301 38.6484C40.0604 38.7614 40.0142 38.8874 39.9934 39.0186C39.9727 39.1495 39.9778 39.2832 40.009 39.4121C40.0403 39.541 40.0966 39.6627 40.175 39.7695C40.2536 39.8765 40.3533 39.9669 40.467 40.0352C40.5807 40.1033 40.707 40.148 40.8381 40.167C43.2597 40.551 45.4972 41.6957 47.2278 43.4355C47.4153 43.6235 47.6695 43.7293 47.9348 43.7295C48.2002 43.7296 48.4551 43.6244 48.6428 43.4365C48.8305 43.2486 48.9357 42.9934 48.9358 42.7275C48.9359 42.4617 48.8304 42.2066 48.6428 42.0186C46.6135 39.9795 43.9904 38.6377 41.1516 38.1875ZM52.7073 37.9463C48.6555 33.8872 43.249 32.0015 37.9397 32.2891C37.6765 32.3057 37.4304 32.4256 37.2551 32.623C37.0799 32.8204 36.989 33.079 37.0032 33.3428C37.0174 33.6066 37.1358 33.8549 37.3313 34.0322C37.5267 34.2093 37.7839 34.3018 38.0471 34.29C40.487 34.1534 42.9287 34.5349 45.2112 35.4092C47.4935 36.2835 49.5658 37.6309 51.2922 39.3633C51.4797 39.5511 51.7341 39.6571 51.9993 39.6572C52.2646 39.6572 52.5197 39.5512 52.7073 39.3633C52.8946 39.1754 53.0002 38.9208 53.0002 38.6553C53.0002 38.3895 52.8948 38.1342 52.7073 37.9463ZM31.301 34.1689C31.0593 34.0787 30.7918 34.0853 30.5549 34.1875C28.5982 35.1341 26.815 36.4051 25.2805 37.9463C25.0983 38.1353 24.998 38.3886 25.0002 38.6514C25.0025 38.9142 25.1077 39.1657 25.2932 39.3516C25.4786 39.5372 25.7293 39.6422 25.9915 39.6445C26.2538 39.6468 26.5069 39.5458 26.6956 39.3633C28.0714 37.9812 29.6705 36.8419 31.425 35.9932C31.6524 35.8707 31.8239 35.6649 31.9036 35.4189C31.9832 35.173 31.965 34.9057 31.8528 34.6729C31.7405 34.4401 31.5428 34.2593 31.301 34.1689Z" fill="#C9A227"/>
</svg>
