<svg width="120" height="85" viewBox="0 0 120 85" fill="none" xmlns="http://www.w3.org/2000/svg">
<path opacity="0.4" fill-rule="evenodd" clip-rule="evenodd" d="M74.866 33.1704L80.3147 29.2187V14.4997L69.4333 6.61237C66.075 7.78753 62.8993 9.4289 60 11.4881C67.3833 16.7194 72.6544 24.4087 74.866 33.1704ZM66.7589 67.1986C70.1386 63.3026 72.6856 58.7593 74.2439 53.8468H88.7978L96.8849 65.5022L92.6744 78.8141C89.2879 79.8021 85.7074 80.3309 82.0029 80.3309C77.933 80.335 73.8888 79.6861 70.0253 78.409L66.7589 67.1986ZM113.309 63.9156L98.3071 64.0433L90.162 52.308L94.3826 39.3454L108.122 34.775L120 43.1892C119.86 50.6046 117.533 57.8124 113.309 63.9156ZM111.963 19.0761L107.652 32.8271L93.7985 37.4374L82.317 29.1129V14.6055L93.7305 6.33096C100.945 8.67194 107.294 13.1101 111.963 19.0761Z" fill="#BCBCBC"/>
<path fill-rule="evenodd" clip-rule="evenodd" d="M67.562 66.2089C73.0337 59.455 76.0133 51.0232 76 42.331C76.0133 33.6387 73.0337 25.2069 67.562 18.453C55.452 19.673 46 29.899 46 42.331C46 54.763 55.452 64.9869 67.562 66.2089ZM65.998 68.0249C53.538 66.0989 44 55.329 44 42.331C44 29.331 53.54 18.563 65.998 16.637C59.2771 9.29722 49.9388 4.89568 40 4.38299V80.2789C49.9388 79.7663 59.2771 75.3647 65.998 68.0249ZM38 80.3309C32.7835 80.3372 27.6218 79.2665 22.8383 77.1858C18.0547 75.1051 13.7521 72.0592 10.2 68.2389C23.53 67.1209 34 55.951 34 42.331C34 28.713 23.53 17.541 10.2 16.423C13.7521 12.6027 18.0547 9.55684 22.8383 7.47615C27.6218 5.39545 32.7835 4.32472 38 4.33099V80.3309ZM4.52184e-05 42.331C4.52184e-05 51.431 3.20004 59.783 8.53203 66.3249C21.542 66.0429 32 55.407 32 42.331C32 29.255 21.54 18.619 8.53203 18.337C3.00136 25.109 -0.0134662 33.5874 4.52184e-05 42.331Z" fill="#C9A227"/>
</svg>
