<svg width="128" height="83" viewBox="0 0 128 83" fill="none" xmlns="http://www.w3.org/2000/svg">
<path opacity="0.4" fill-rule="evenodd" clip-rule="evenodd" d="M66.38 16.9369C72.08 23.7479 75.1989 32.3667 75.1848 41.2675C75.1848 50.5311 71.8753 59.0179 66.3781 65.5961L80.906 80.2028C81.642 80.9428 82.5159 81.5298 83.4777 81.9303C84.4394 82.3308 85.4702 82.5369 86.5112 82.5369C87.5522 82.5369 88.583 82.3308 89.5448 81.9303C90.5065 81.5298 91.3804 80.9428 92.1165 80.2028L125.243 46.9014C125.979 46.1614 126.563 45.2829 126.961 44.3161C127.36 43.3492 127.565 42.313 127.565 41.2665C127.565 40.22 127.36 39.1837 126.961 38.2169C126.563 37.25 125.979 36.3715 125.243 35.6316L92.1185 2.33414C91.3824 1.59413 90.5085 1.00712 89.5468 0.606622C88.585 0.206129 87.5542 0 86.5132 0C85.4722 0 84.4414 0.206129 83.4796 0.606622C82.5179 1.00712 81.644 1.59413 80.9079 2.33414L66.38 16.9369ZM86.2605 15.369C88.1001 15.369 89.8643 16.1036 91.165 17.4113C92.4658 18.7189 93.1965 20.4924 93.1965 22.3417C93.1965 24.1909 92.4658 25.9645 91.165 27.2721C89.8643 28.5797 88.1001 29.3143 86.2605 29.3143C84.421 29.3143 82.6568 28.5797 81.3561 27.2721C80.0553 25.9645 79.3246 24.1909 79.3246 22.3417C79.3246 20.4924 80.0553 18.7189 81.3561 17.4113C82.6568 16.1036 84.421 15.369 86.2605 15.369ZM93.1965 62.1854C93.1965 61.2698 93.0171 60.3631 92.6685 59.5171C92.32 58.6712 91.8091 57.9025 91.165 57.255C90.5209 56.6076 89.7563 56.0939 88.9148 55.7435C88.0733 55.3931 87.1714 55.2128 86.2605 55.2128C85.3497 55.2128 84.4478 55.3931 83.6062 55.7435C82.7647 56.0939 82.0001 56.6076 81.3561 57.255C80.712 57.9025 80.2011 58.6712 79.8525 59.5171C79.504 60.3631 79.3246 61.2698 79.3246 62.1854C79.3246 64.0347 80.0553 65.8082 81.3561 67.1158C82.6568 68.4235 84.421 69.1581 86.2605 69.1581C88.1001 69.1581 89.8643 68.4235 91.165 67.1158C92.4658 65.8082 93.1965 64.0347 93.1965 62.1854Z" fill="#BCBCBC"/>
<path fill-rule="evenodd" clip-rule="evenodd" d="M75.3049 41.2673C75.3049 62.1714 58.4465 79.1189 37.6524 79.1189C16.8584 79.1189 0 62.1714 0 41.2673C0 20.3633 16.8584 3.41577 37.6524 3.41577C58.4465 3.41577 75.3049 20.3633 75.3049 41.2673ZM30.2309 41.5024L37.9101 30.2127L45.8963 41.1916L38.2192 52.4834L30.2329 41.5024H30.2309ZM63.4146 41.2673C63.4146 55.5712 51.8811 67.1658 37.6524 67.1658C23.4238 67.1658 11.8902 55.5712 11.8902 41.2673C11.8902 26.9634 23.4238 15.3689 37.6524 15.3689C51.8811 15.3689 63.4146 26.9634 63.4146 41.2673ZM65.3963 41.2673C65.3963 56.6709 52.975 69.158 37.6524 69.158C22.3299 69.158 9.90854 56.6709 9.90854 41.2673C9.90854 25.8637 22.3299 13.3767 37.6524 13.3767C52.975 13.3767 65.3963 25.8637 65.3963 41.2673Z" fill="#C9A227"/>
</svg>
