<svg width="70" height="57" viewBox="0 0 70 57" fill="none" xmlns="http://www.w3.org/2000/svg">
<g clip-path="url(#clip0_2001_116)">
<path fill-rule="evenodd" clip-rule="evenodd" d="M50.3467 32.441C49.651 36.8132 47.8298 40.926 45.0641 44.3708C47.2516 45.3313 49.6132 45.8254 52.0001 45.8219C61.5734 45.8219 69.3334 38.0163 69.3334 28.3866C69.3334 18.757 61.5734 10.9514 52.0001 10.9514C49.5334 10.9514 47.1881 11.469 45.0641 12.4025C47.8381 15.8572 49.662 19.9838 50.3534 24.3698L52.6814 20.9444L58.0561 28.3357L52.8894 35.9375L50.3481 32.441H50.3467ZM44.1641 45.433C42.5577 47.2284 40.707 48.7862 38.6667 50.06C42.6702 52.5576 47.2892 53.8771 52.0001 53.869C65.9907 53.869 77.3334 42.4596 77.3334 28.3866C77.3334 14.3137 65.9907 2.9043 52.0001 2.9043C47.1067 2.9043 42.5401 4.29912 38.6667 6.71458C40.7069 7.98803 42.5576 9.54536 44.1641 11.3403C46.6198 10.197 49.294 9.60652 52.0001 9.61017C62.3094 9.61017 70.6667 18.0167 70.6667 28.3866C70.6667 38.7566 62.3094 47.1631 52.0001 47.1631C49.2014 47.1631 46.5467 46.5435 44.1641 45.433Z" fill="#1F2233"/>
<path fill-rule="evenodd" clip-rule="evenodd" d="M50.6667 28.3867C50.6667 42.4596 39.324 53.869 25.3333 53.869C11.3427 53.869 0 42.4596 0 28.3867C0 14.3137 11.3427 2.9043 25.3333 2.9043C39.324 2.9043 50.6667 14.3137 50.6667 28.3867ZM25.3333 45.8219C34.9067 45.8219 42.6667 38.0163 42.6667 28.3867C42.6667 18.757 34.9067 10.9514 25.3333 10.9514C15.76 10.9514 8 18.757 8 28.3867C8 38.0163 15.76 45.8219 25.3333 45.8219ZM25.3333 47.1631C35.6427 47.1631 44 38.7566 44 28.3867C44 18.0167 35.6427 9.61018 25.3333 9.61018C15.024 9.61018 6.66667 18.0167 6.66667 28.3867C6.66667 38.7566 15.024 47.1631 25.3333 47.1631ZM21.3333 17.6572V21.4166C20.1168 22.1227 19.1067 23.1387 18.4045 24.3623C17.7023 25.5858 17.3329 26.9738 17.3333 28.3867C17.3333 31.3641 18.9427 33.9659 21.3333 35.3567V39.1161H24V36.3224C24.8827 36.4716 25.784 36.4716 26.6667 36.3224V39.1161H29.3333V35.3567C30.984 34.3965 32.2408 32.8765 32.8787 31.069H29.9533C29.3663 32.0917 28.4602 32.8911 27.3755 33.343C26.2908 33.7949 25.0882 33.8742 23.9542 33.5686C22.8201 33.2629 21.818 32.5894 21.1033 31.6525C20.3886 30.7156 20.0012 29.5676 20.0012 28.3867C20.0012 27.2057 20.3886 26.0577 21.1033 25.1208C21.818 24.1839 22.8201 23.5104 23.9542 23.2047C25.0882 22.8991 26.2908 22.9784 27.3755 23.4303C28.4602 23.8822 29.3663 24.6816 29.9533 25.7043H32.8787C32.2408 23.8968 30.984 22.3768 29.3333 21.4166V17.6572H26.6667V20.4509C25.784 20.3017 24.8827 20.3017 24 20.4509V17.6572H21.3333Z" fill="#C9A227"/>
</g>
<defs>
<clipPath id="clip0_2001_116">
<rect width="70" height="57" fill="white"/>
</clipPath>
</defs>
</svg>
