<svg width="16" height="16" viewBox="0 0 16 16" fill="none" xmlns="http://www.w3.org/2000/svg">
<path opacity="0.8" d="M11.7937 4.74393C10.1888 3.51988 9.3691 2.7711 8.03618 1.25496C7.88602 1.08416 7.69402 1 7.50202 1C7.31002 1 7.11802 1.0854 6.96787 1.25496C5.63495 2.7711 4.81526 3.51988 3.21034 4.74393C1.11434 6.34299 0.0300347 9.46933 2.14572 11.3382C3.62141 12.6415 5.39987 12.5499 6.81772 11.3209C6.24418 12.5004 5.78387 13.6081 5.13403 14.623C4.91864 14.9608 5.01095 15.0735 5.39249 14.9534C6.00049 14.7641 6.72418 14.6539 7.49956 14.6539C8.27495 14.6539 8.99987 14.7641 9.60664 14.9534C9.98817 15.0722 10.0817 14.9596 9.8651 14.623C9.21525 13.6068 8.75494 12.4991 8.18141 11.3209C9.59925 12.5511 11.3789 12.6415 12.8534 11.3382C14.9703 9.46809 13.886 6.34299 11.7888 4.74393H11.7937Z" fill="#C9A227"/>
</svg>
