<svg width="116" height="85" viewBox="0 0 116 85" fill="none" xmlns="http://www.w3.org/2000/svg">
<path opacity="0.4" fill-rule="evenodd" clip-rule="evenodd" d="M75.52 48.3769C74.4764 54.8968 71.7445 61.03 67.596 66.1669C70.8772 67.5993 74.4197 68.3361 78 68.3309C92.36 68.3309 104 56.6909 104 42.3309C104 27.9709 92.36 16.3309 78 16.3309C74.3 16.3309 70.782 17.1029 67.596 18.4949C71.757 23.6467 74.4928 29.8004 75.53 36.3409L79.022 31.2329L87.084 42.2549L79.334 53.5909L75.522 48.3769H75.52ZM66.246 67.7509C63.8365 70.4282 61.0603 72.7513 58 74.6509C64.0052 78.3753 70.9336 80.3429 78 80.3309C98.986 80.3309 116 63.3169 116 42.3309C116 21.3449 98.986 4.33093 78 4.33093C70.66 4.33093 63.81 6.41093 58 10.0129C61.0602 11.9119 63.8363 14.2343 66.246 16.9109C69.9296 15.206 73.941 14.3255 78 14.3309C93.464 14.3309 106 26.8669 106 42.3309C106 57.7949 93.464 70.3309 78 70.3309C73.802 70.3309 69.82 69.4069 66.246 67.7509Z" fill="#BCBCBC"/>
<path fill-rule="evenodd" clip-rule="evenodd" d="M76 42.3309C76 63.3169 58.986 80.3309 38 80.3309C17.014 80.3309 0 63.3169 0 42.3309C0 21.3449 17.014 4.33093 38 4.33093C58.986 4.33093 76 21.3449 76 42.3309ZM38 68.3309C52.36 68.3309 64 56.6909 64 42.3309C64 27.9709 52.36 16.3309 38 16.3309C23.64 16.3309 12 27.9709 12 42.3309C12 56.6909 23.64 68.3309 38 68.3309ZM38 70.3309C53.464 70.3309 66 57.7949 66 42.3309C66 26.8669 53.464 14.3309 38 14.3309C22.536 14.3309 10 26.8669 10 42.3309C10 57.7949 22.536 70.3309 38 70.3309ZM32 26.3309V31.9369C30.1752 32.99 28.66 34.505 27.6067 36.3297C26.5535 38.1543 25.9993 40.2241 26 42.3309C26 46.7709 28.414 50.6509 32 52.7249V58.3309H36V54.1649C37.3241 54.3874 38.6759 54.3874 40 54.1649V58.3309H44V52.7249C46.476 51.293 48.3612 49.0264 49.318 46.3309H44.93C44.0495 47.8561 42.6903 49.048 41.0633 49.722C39.4362 50.3959 37.6323 50.5141 35.9312 50.0583C34.2302 49.6025 32.727 48.5982 31.655 47.201C30.5829 45.8039 30.0018 44.092 30.0018 42.3309C30.0018 40.5699 30.5829 38.858 31.655 37.4608C32.727 36.0637 34.2302 35.0593 35.9312 34.6035C37.6323 34.1477 39.4362 34.266 41.0633 34.9399C42.6903 35.6138 44.0495 36.8058 44.93 38.3309H49.318C48.3612 35.6355 46.476 33.3688 44 31.9369V26.3309H40V30.4969C38.6759 30.2745 37.3241 30.2745 36 30.4969V26.3309H32Z" fill="#C9A227"/>
</svg>
