<svg xmlns="http://www.w3.org/2000/svg" version="1.1" xmlns:xlink="http://www.w3.org/1999/xlink" width="51" height="52"><svg xmlns="http://www.w3.org/2000/svg" version="1.1" xmlns:xlink="http://www.w3.org/1999/xlink" width="51" height="52"><svg width="51" height="52" viewBox="0 0 51 52" fill="none" xmlns="http://www.w3.org/2000/svg">
<path d="M23.6723 14.1301C24.5987 15.0492 26.093 15.0492 27.0195 14.1301L31.1764 10.0066C32.1051 9.08525 32.1146 7.58656 31.1976 6.65358L27.0407 2.42429C26.1094 1.47681 24.5823 1.47682 23.651 2.42429L19.4941 6.65358C18.5771 7.58656 18.5866 9.08525 19.5153 10.0066L23.6723 14.1301Z" fill="#3171C8"></path>
<path d="M48.8634 24.4609L36.759 12.2959C35.8423 11.3746 34.3556 11.3606 33.4217 12.2644L29.0251 16.5194C28.1182 17.3971 28.0555 18.8306 28.8824 19.7841L32.8989 24.4153C32.9932 24.524 33.0795 24.6405 33.1451 24.7686C33.8192 26.0865 33.4918 27.4632 33.1575 28.1759C33.0863 28.3278 32.9833 28.4613 32.8695 28.5848L28.9598 32.8277C28.0937 33.7677 28.1262 35.2243 29.0333 36.1247L33.3904 40.4495C34.3331 41.3852 35.8597 41.3666 36.7793 40.4082L48.8936 27.7824C49.7874 26.8508 49.774 25.3761 48.8634 24.4609Z" fill="#3171C8"></path>
<path d="M31.1764 45.9162L27.0195 50.0398C26.093 50.9588 24.5987 50.9588 23.6723 50.0398L19.5153 45.9162C18.5866 44.9949 18.5771 43.4962 19.4941 42.5632L23.651 38.334C24.5823 37.3865 26.1094 37.3865 27.0407 38.334L31.1976 42.5632C32.1146 43.4962 32.1051 44.9949 31.1764 45.9162Z" fill="#3171C8"></path>
<path d="M17.4454 40.2576L21.7489 35.8791C22.6149 34.9981 22.6614 33.6004 21.8558 32.6638L18.0238 28.2081C16.672 26.8328 17.4606 25.0881 18.0238 24.3877L21.8501 19.7997C22.6542 18.8355 22.5696 17.4123 21.657 16.5502L17.089 12.2345C16.1482 11.3458 14.6693 11.3732 13.7621 12.2962L1.65717 24.6119C0.740546 25.5445 0.749571 27.0424 1.67736 27.9638L14.0759 40.2779C15.0106 41.2062 16.522 41.1971 17.4454 40.2576Z" fill="#3171C8"></path>
<path d="M20.9915 24.66L23.5768 21.7751C24.5213 20.7212 26.1718 20.7212 27.1163 21.7751L29.7016 24.66C30.5289 25.5831 30.5077 26.987 29.6529 27.8847L27.0676 30.5999C26.131 31.5835 24.5621 31.5835 23.6255 30.5999L21.0402 27.8847C20.1854 26.987 20.1642 25.5831 20.9915 24.66Z" fill="#3171C8"></path>
</svg></svg><style>@media (prefers-color-scheme: light) { :root { filter: none; } }
@media (prefers-color-scheme: dark) { :root { filter: none; } }
</style></svg>