<svg width="14" height="14" viewBox="0 0 14 14" fill="none" xmlns="http://www.w3.org/2000/svg">
<path d="M6.78125 0C10.5 0 13.5625 3.0625 13.5625 6.78125C13.5625 10.5273 10.5 13.5625 6.78125 13.5625C3.03516 13.5625 0 10.5273 0 6.78125C0 3.0625 3.03516 0 6.78125 0ZM6.78125 1.3125C3.74609 1.3125 1.3125 3.77344 1.3125 6.78125C1.3125 9.81641 3.74609 12.25 6.78125 12.25C9.78906 12.25 12.25 9.81641 12.25 6.78125C12.25 3.77344 9.78906 1.3125 6.78125 1.3125ZM10.6094 4.89453C10.7188 5.00391 10.7188 5.22266 10.6094 5.35938L5.87891 10.0352C5.74219 10.1719 5.55078 10.1719 5.41406 10.0352L2.92578 7.51953C2.81641 7.41016 2.81641 7.19141 2.92578 7.05469L3.55469 6.45312C3.69141 6.31641 3.88281 6.31641 4.01953 6.45312L5.66016 8.09375L9.51562 4.26562C9.65234 4.12891 9.87109 4.12891 9.98047 4.26562L10.6094 4.89453Z" fill="#CA9D4A"/>
</svg>
